<svg width="1024" height="1024" viewBox="0 0 1024 1024" xmlns="http://www.w3.org/2000/svg">
  <defs>
    <linearGradient id="g1" x1="0" y1="0" x2="0" y2="1">
      <stop offset="0%" stop-color="#7C3AED" stop-opacity="0.9"/>
      <stop offset="100%" stop-color="#FF2C66" stop-opacity="0.8"/>
    </linearGradient>
    <linearGradient id="f1" x1="0" y1="0" x2="0" y2="1">
      <stop offset="0%" stop-color="#ffffff"/>
      <stop offset="100%" stop-color="#e8d8ff" stop-opacity="0.9"/>
    </linearGradient>
  </defs>

  <!-- Bakgrunn -->
  <rect width="1024" height="1024" rx="240" fill="#0D0D0D"/>

  <!-- Ølglass kropp -->
  <path d="M280 720 L280 240 Q280 148 372 148 L596 148 Q688 148 688 240 L688 720 Q688 812 596 812 L372 812 Q280 812 280 720Z" fill="none" stroke="url(#g1)" stroke-width="24"/>

  <!-- Håndtak -->
  <path d="M688 320 Q820 320 820 448 Q820 576 688 576" fill="none" stroke="url(#g1)" stroke-width="56" stroke-linecap="round"/>
  <path d="M688 320 Q820 320 820 448 Q820 576 688 576" fill="none" stroke="#0D0D0D" stroke-width="24"/>

  <!-- Skum -->
  <path d="M284 240 Q284 156 372 156 L596 156 Q684 156 684 240 L684 380 L284 380Z" fill="url(#f1)" opacity="0.95"/>

  <!-- Øl-farge -->
  <path d="M284 380 L684 380 L684 720 Q684 804 596 804 L372 804 Q284 804 284 720Z" fill="url(#g1)" opacity="0.18"/>

  <!-- Bobler -->
  <circle cx="380" cy="560" r="28" fill="#7C3AED" opacity="0.6"/>
  <circle cx="480" cy="500" r="20" fill="#FF2C66" opacity="0.55"/>
  <circle cx="420" cy="660" r="16" fill="#7C3AED" opacity="0.45"/>
  <circle cx="560" cy="600" r="24" fill="#FF2C66" opacity="0.5"/>
  <circle cx="360" cy="700" r="14" fill="#7C3AED" opacity="0.4"/>
  <circle cx="540" cy="700" r="18" fill="#FF2C66" opacity="0.35"/>
  <circle cx="460" cy="620" r="12" fill="#7C3AED" opacity="0.3"/>

  <!-- Boble-striper -->
  <line x1="379" y1="560" x2="379" y2="380" stroke="#7C3AED" stroke-width="6" opacity="0.22" stroke-dasharray="16,28"/>
  <line x1="479" y1="500" x2="479" y2="380" stroke="#FF2C66" stroke-width="6" opacity="0.18" stroke-dasharray="16,28"/>
  <line x1="559" y1="600" x2="559" y2="380" stroke="#FF2C66" stroke-width="6" opacity="0.15" stroke-dasharray="16,28"/>

  <!-- BUZZ tekst -->
  <text x="290" y="920" font-family="Arial Black, sans-serif" font-size="108" font-weight="900" fill="#7C3AED" letter-spacing="8">BUZZ</text>
  <!-- ED tekst -->
  <text x="660" y="920" font-family="Arial Black, sans-serif" font-size="108" font-weight="900" fill="#FF2C66" letter-spacing="8">ED</text>
</svg>